<?xml version="1.0" encoding="utf-8"?>
<!-- Generator: Adobe Illustrator 25.4.1, SVG Export Plug-In . SVG Version: 6.00 Build 0)  -->
<svg version="1.1" id="Camada_1" xmlns="http://www.w3.org/2000/svg" xmlns:xlink="http://www.w3.org/1999/xlink" x="0px" y="0px"
	 viewBox="0 0 150 59.7" style="enable-background:new 0 0 150 59.7;" xml:space="preserve">
<style type="text/css">
	.st0{fill:#f6f0e0;}
	.st1{fill:#414042;}
</style>
<g id="Camada_2_00000060718300153616395440000004230168688642832277_">
	<g id="OBJECT">
		<path class="st0" d="M148,1.3c-1-1-2.4-1.5-3.8-1.2c-1.8,0.4-3.4,2.3-4.9,5.7c-0.3,0.6-0.5,1.3-0.8,2.1l-16.3,0.4
			c-0.2,0-0.3,0.1-0.4,0.2l-25,33.8c-0.1,0.1-0.1,0.3-0.1,0.4c0,0.1,0.1,0.3,0.2,0.3l22.5,16.6c0.1,0.1,0.2,0.1,0.3,0.1
			c0.2,0,0.3-0.1,0.4-0.2l25-33.8c0.1-0.1,0.1-0.3,0.1-0.5l-4.8-17c-0.1-0.2-0.3-0.4-0.5-0.4h-0.2c0.2-0.6,0.4-1.1,0.6-1.6
			c1.3-3,2.7-4.8,4.1-5.1c1-0.2,2.1,0.2,2.8,1c1.3,1.1,1.9,2.2,1.6,3.2c-0.5,2.2-4.8,3.9-6.4,4.4c-0.3,0.1-0.4,0.4-0.3,0.7
			c0.1,0.3,0.3,0.4,0.6,0.3c0.3-0.1,6.4-1.8,7.1-5.2C150.2,4.1,149.6,2.7,148,1.3z M140.4,28.9l-1,1.4l-1.4-1l1-1.4L140.4,28.9z
			 M139.9,26.6l1-1.4l1.4,1l-1,1.4L139.9,26.6z M101.8,39l1-1.4l1.4,1l-1,1.4L101.8,39z M102.3,41.2l-1,1.4l-1.4-1l1-1.4L102.3,41.2
			z M103.8,36.4l1-1.4l1.4,1l-1,1.4L103.8,36.4z M105.8,33.7l1-1.4l1.4,1l-1,1.4L105.8,33.7z M107.5,31.4l1-1.4l1.4,1l-1,1.4
			L107.5,31.4z M109.4,28.7l1-1.4l1.4,1l-1,1.4L109.4,28.7z M111.3,26.1l1-1.4l1.4,1l-1,1.4L111.3,26.1z M113.3,23.5l1-1.4l1.4,1
			l-1,1.4L113.3,23.5z M115.3,20.8l1-1.4l1.4,1l-1,1.4L115.3,20.8z M117.2,18.2l1-1.4l1.4,1l-1,1.4L117.2,18.2z M139.1,11
			c0,0.5-0.4,0.9-0.9,0.9c-0.5,0-0.9-0.4-0.9-0.9c0-0.4,0.2-0.7,0.6-0.9c-0.1,0.4-0.2,0.7-0.2,0.7c-0.1,0.3,0.1,0.6,0.4,0.6h0.1
			c0.2,0,0.5-0.2,0.5-0.4c0,0,0.1-0.3,0.2-0.7C139.1,10.6,139.1,10.8,139.1,11z M121.6,15.1l-1,1.4l-1.4-1l1-1.4L121.6,15.1z
			 M121.1,12.8l1-1.4l1.4,1l-1,1.4L121.1,12.8z M119.7,54l1.4,1l-1,1.4l-1.4-1L119.7,54z M120.6,52.8l1-1.4l1.4,1l-1,1.4L120.6,52.8
			z M122.5,50.2l1-1.4l1.4,1l-1,1.4L122.5,50.2z M124.5,47.5l1-1.4l1.4,1l-1,1.4L124.5,47.5z M126.2,45.1l1-1.4l1.4,1l-1,1.4
			L126.2,45.1z M128.2,42.5l1-1.4l1.4,1l-1,1.4L128.2,42.5z M130.1,39.9l1-1.4l1.4,1l-1,1.4L130.1,39.9z M132,37.3l1-1.4l1.4,1
			l-1,1.4L132,37.3z M134,34.6l1-1.4l1.4,1l-1,1.4L134,34.6z M136,32l1-1.4l1.4,1l-1,1.4L136,32z"/>
		<path class="st1" d="M11.6,42.8v0.5c0,0.4-0.1,0.7-0.1,1.1c-0.1,0.5-0.4,1-0.7,1.4C10.3,46.3,9.7,46.7,9,47
			c-1,0.4-2.1,0.5-3.2,0.5c-1.1,0-2.2-0.1-3.2-0.5c-0.7-0.3-1.3-0.7-1.7-1.2c-0.4-0.4-0.6-0.9-0.7-1.4C0.1,44.1,0,43.7,0,43.3v-0.8
			h2.9v0.3c0,0.2,0,0.5,0.1,0.7C3,43.7,3.2,44,3.4,44.1c0.2,0.2,0.5,0.4,0.9,0.5c0.5,0.2,1,0.2,1.5,0.2c0.5,0,1.1-0.1,1.6-0.2
			c0.3-0.1,0.6-0.3,0.9-0.5c0.2-0.2,0.4-0.4,0.4-0.7c0.1-0.2,0.1-0.4,0.1-0.6V22.4h2.9L11.6,42.8z"/>
		<path class="st1" d="M26.7,31.8V32c0,0.8-0.3,1.7-0.8,2.3c-0.7,0.8-1.7,1.4-2.8,1.7c-0.1,0-0.1,0-0.2,0.1l-1.1,0.4l-1.1,0.4
			l-1.2,0.4c-0.3,0.1-0.5,0.2-0.8,0.3c-0.2,0.1-0.4,0.3-0.6,0.5c-0.2,0.2-0.3,0.5-0.2,0.8v8.3H15v-21c0-0.4,0.1-0.7,0.1-1.1
			c0.1-0.5,0.4-1,0.7-1.4c0.5-0.5,1.1-0.9,1.8-1.2c1-0.4,2.1-0.5,3.2-0.5c1.1,0,2.2,0.1,3.2,0.5c0.7,0.3,1.3,0.7,1.7,1.2
			c0.4,0.4,0.6,0.9,0.7,1.4c0.1,0.4,0.1,0.7,0.1,1.1C26.7,26.3,26.7,31.8,26.7,31.8z M18.7,34.6l1-0.3c0.3-0.1,0.7-0.2,1-0.4
			l0.9-0.3l0.4-0.1l0.4-0.1c0.5-0.1,0.9-0.4,1.1-0.9c0.1-0.3,0.2-0.7,0.2-1v-4.7c0-0.2,0-0.5-0.1-0.7c-0.1-0.3-0.2-0.5-0.4-0.7
			c-0.3-0.2-0.6-0.4-0.9-0.5c-0.5-0.2-1-0.2-1.6-0.2c-0.5,0-1,0.1-1.5,0.2c-0.3,0.1-0.6,0.3-0.9,0.6c-0.2,0.2-0.3,0.4-0.4,0.7
			c-0.1,0.2-0.1,0.4-0.1,0.7v8L18.7,34.6z"/>
		<path class="st1" d="M50.4,47.2h-2.9V26.8c0-0.2,0-0.5-0.1-0.7c-0.1-0.3-0.2-0.5-0.4-0.7c-0.3-0.2-0.6-0.4-0.9-0.5
			c-0.5-0.2-1-0.2-1.6-0.2c-0.5,0-1,0.1-1.5,0.2c-0.3,0.1-0.6,0.3-0.9,0.6c-0.2,0.2-0.3,0.4-0.4,0.7c-0.1,0.2-0.1,0.4-0.1,0.7v20.4
			h-2.9V26.8c0-0.2,0-0.5-0.1-0.7c-0.1-0.3-0.2-0.5-0.4-0.7c-0.3-0.2-0.6-0.4-0.9-0.5c-0.5-0.2-1-0.2-1.6-0.2c-0.5,0-1,0.1-1.5,0.2
			c-0.3,0.1-0.6,0.3-0.9,0.6c-0.2,0.2-0.3,0.4-0.4,0.7c-0.1,0.2-0.1,0.4-0.1,0.7v20.4H30V26.3c0-0.4,0.1-0.7,0.1-1.1
			c0.1-0.5,0.4-1,0.7-1.4c0.5-0.5,1.1-0.9,1.8-1.2c1-0.4,2.1-0.5,3.2-0.5c0.9,0,1.8,0.1,2.7,0.3c0.6,0.2,1.2,0.4,1.7,0.8
			c0.5-0.4,1.1-0.6,1.7-0.8c0.9-0.2,1.8-0.4,2.7-0.3c1.1,0,2.2,0.1,3.2,0.5c0.7,0.3,1.3,0.7,1.8,1.2c0.4,0.4,0.6,0.9,0.7,1.4
			c0.1,0.4,0.1,0.7,0.1,1.1L50.4,47.2L50.4,47.2z"/>
		<path class="st1" d="M65.4,43v0.3c0,0.4-0.1,0.7-0.1,1.1c-0.1,0.5-0.4,1-0.7,1.4c-0.5,0.5-1.1,0.9-1.8,1.2c-1,0.4-2.1,0.5-3.2,0.5
			c-1.1,0-2.2-0.1-3.2-0.5c-0.7-0.3-1.3-0.7-1.8-1.2c-0.4-0.4-0.6-0.9-0.7-1.4c-0.1-0.4-0.1-0.7-0.1-1.1V26.2c0-0.4,0.1-0.7,0.1-1.1
			c0.1-0.5,0.4-1,0.7-1.4c0.5-0.5,1.1-0.9,1.8-1.2c1-0.4,2.1-0.5,3.2-0.5c1.1,0,2.2,0.1,3.2,0.5c0.7,0.3,1.3,0.7,1.8,1.2
			c0.4,0.4,0.6,0.9,0.7,1.4c0.1,0.4,0.1,0.7,0.1,1.1V43z M62.5,42.5L62.5,42.5V27.1l0,0v-0.4c0-0.2,0-0.5-0.1-0.7
			c-0.1-0.3-0.2-0.5-0.4-0.7c-0.3-0.2-0.6-0.4-0.9-0.5c-0.5-0.2-1.1-0.2-1.6-0.2c-0.5,0-1,0.1-1.5,0.2c-0.3,0.1-0.6,0.3-0.9,0.6
			c-0.2,0.2-0.3,0.4-0.4,0.7c-0.1,0.2-0.1,0.4-0.1,0.7v16c0,0.2,0,0.5,0.1,0.7c0.1,0.3,0.2,0.5,0.4,0.7c0.2,0.2,0.5,0.4,0.9,0.5
			c0.5,0.2,1,0.2,1.5,0.2c0.5,0,1.1-0.1,1.6-0.2c0.3-0.1,0.6-0.3,0.9-0.5c0.2-0.2,0.3-0.4,0.4-0.7c0.1-0.2,0.1-0.4,0.1-0.6V42.5z"/>
		<path class="st1" d="M80.4,43.8V45c0,0.3,0,0.6-0.1,0.8c0,0.2-0.1,0.5-0.2,0.7c-0.1,0.2-0.3,0.4-0.5,0.6c-0.4,0.4-1,0.7-1.6,0.8
			c-0.6,0.1-1.2,0.1-1.8-0.1l-1.9-0.6l-1.9-0.7c-0.2,0-0.4-0.1-0.7-0.2l-0.5-0.2c-0.3-0.1-0.6-0.2-0.9-0.3c-0.7-0.3-1.2-0.9-1.5-1.7
			c-0.2-0.5-0.3-1.1-0.2-1.7V22.4h2.9v19.1c0,0.1,0,0.1,0,0.2c0,0.4,0.1,0.8,0.4,1.2c0.2,0.3,0.4,0.6,0.7,0.8c0.3,0.2,0.6,0.4,1,0.5
			c0.3,0.1,0.7,0.2,1,0.3c0.5,0.2,1.1,0.3,1.6,0.4c0.3,0.1,0.6,0.1,0.9,0c0.2-0.1,0.3-0.3,0.4-0.5c0.1-0.3,0.1-0.6,0.1-0.9v-3l0,0
			v-18h2.9L80.4,43.8L80.4,43.8z"/>
		<path class="st1" d="M83.8,22.4h2.9v24.8h-2.9V22.4z"/>
		<path class="st1" d="M100.6,47.2h-6.7c-0.6,0-1.2-0.1-1.7-0.4c-0.5-0.2-0.9-0.5-1.2-0.9c-0.6-0.7-1-1.6-1-2.6V26.3
			c0-1,0.4-1.9,1-2.6c0.3-0.4,0.7-0.7,1.2-0.9c0.5-0.3,1.1-0.4,1.7-0.4h6.7v2.4h-5.8c-0.5,0-1.1,0.2-1.4,0.6
			c-0.4,0.4-0.5,0.9-0.5,1.5v6.6h6.2v2.7h-6.2v6.6c0,0.5,0.2,1,0.5,1.4c0.4,0.4,0.9,0.6,1.4,0.6h5.8V47.2z"/>
		<path class="st1" d="M115.6,43.3c0,0.4-0.1,0.7-0.1,1.1c-0.1,0.5-0.4,1-0.7,1.4c-0.5,0.5-1.1,1-1.8,1.2c-2.1,0.7-4.3,0.7-6.4,0
			c-0.7-0.3-1.3-0.7-1.8-1.2c-0.3-0.4-0.6-0.9-0.7-1.4c-0.1-0.4-0.1-0.7-0.1-1.1v-0.9h2.9v0.3c0,0.2,0,0.5,0.1,0.7
			c0.1,0.3,0.2,0.5,0.4,0.7c0.3,0.2,0.6,0.4,0.9,0.5c0.5,0.2,1,0.2,1.5,0.2c0.5,0,1.1-0.1,1.6-0.2c0.3-0.1,0.6-0.3,0.9-0.5
			c0.2-0.2,0.3-0.4,0.4-0.7c0.1-0.2,0.1-0.4,0.1-0.6v-3.8c0-0.3-0.1-0.7-0.2-1c-0.2-0.4-0.6-0.8-1.1-0.9l-0.5-0.2
			c-0.2-0.1-0.4-0.1-0.6-0.2l-2.6-0.9c-0.1,0-0.1-0.1-0.2-0.1c-1.1-0.2-2-0.8-2.7-1.7c-0.5-0.7-0.8-1.5-0.8-2.3v-5.7
			c0-0.4,0.1-0.7,0.1-1.1c0.1-0.5,0.4-1,0.7-1.4c0.5-0.5,1.1-0.9,1.8-1.2c2.1-0.7,4.3-0.7,6.4,0c0.7,0.3,1.3,0.7,1.7,1.2
			c0.4,0.4,0.6,0.9,0.7,1.4c0.1,0.4,0.1,0.7,0.1,1.1v0.9h-2.9v-0.4c0-0.2,0-0.5-0.1-0.7c-0.1-0.3-0.2-0.5-0.4-0.7
			c-0.3-0.2-0.6-0.4-0.9-0.5c-0.5-0.2-1-0.2-1.6-0.2c-0.5,0-1,0.1-1.5,0.2c-0.3,0.1-0.6,0.3-0.9,0.6c-0.2,0.2-0.3,0.4-0.4,0.7
			c-0.1,0.2-0.1,0.4-0.1,0.7v4.6c0,0.3,0.1,0.7,0.3,1c0.3,0.4,0.7,0.7,1.2,0.9c0.1,0.1,0.2,0.1,0.3,0.1l0.4,0.1l1.4,0.5
			c0.5,0.2,1,0.4,1.5,0.5c0.4,0.1,0.8,0.2,1.2,0.4c0.4,0.1,0.8,0.3,1.1,0.6c0.3,0.3,0.6,0.6,0.8,0.9c0.4,0.6,0.7,1.4,0.7,2.1
			L115.6,43.3L115.6,43.3z"/>
	</g>
</g>
</svg>
